<mxfile host="app.diagrams.net" agent="Mozilla/5.0 (Windows NT 10.0; Win64; x64; rv:132.0) Gecko/20100101 Firefox/132.0" version="24.8.4">
  <diagram name="Página-1" id="2dK2UjkDzIWzSHj0DPxr">
    <mxGraphModel dx="2587" dy="884" grid="1" gridSize="10" guides="1" tooltips="1" connect="1" arrows="1" fold="1" page="1" pageScale="1" pageWidth="827" pageHeight="1169" math="0" shadow="0">
      <root>
        <mxCell id="0" />
        <mxCell id="1" parent="0" />
        <mxCell id="QAv7SoVQ9SZJyrw0kB7v-9" style="edgeStyle=orthogonalEdgeStyle;rounded=0;orthogonalLoop=1;jettySize=auto;html=1;exitX=0.5;exitY=1;exitDx=0;exitDy=0;entryX=0.5;entryY=0;entryDx=0;entryDy=0;" edge="1" parent="1" source="QAv7SoVQ9SZJyrw0kB7v-2" target="QAv7SoVQ9SZJyrw0kB7v-4">
          <mxGeometry relative="1" as="geometry" />
        </mxCell>
        <mxCell id="QAv7SoVQ9SZJyrw0kB7v-2" value="" style="ellipse;fillColor=strokeColor;html=1;" vertex="1" parent="1">
          <mxGeometry x="404" y="60" width="30" height="30" as="geometry" />
        </mxCell>
        <mxCell id="QAv7SoVQ9SZJyrw0kB7v-4" value="Login" style="rounded=1;whiteSpace=wrap;html=1;absoluteArcSize=1;arcSize=14;strokeWidth=2;" vertex="1" parent="1">
          <mxGeometry x="353" y="160" width="132" height="60" as="geometry" />
        </mxCell>
        <mxCell id="QAv7SoVQ9SZJyrw0kB7v-5" value="Cadastro" style="rounded=1;whiteSpace=wrap;html=1;absoluteArcSize=1;arcSize=14;strokeWidth=2;" vertex="1" parent="1">
          <mxGeometry x="571" y="160" width="139" height="60" as="geometry" />
        </mxCell>
        <mxCell id="QAv7SoVQ9SZJyrw0kB7v-6" value="Recuperação &lt;br&gt;de Senha" style="rounded=1;whiteSpace=wrap;html=1;absoluteArcSize=1;arcSize=14;strokeWidth=2;" vertex="1" parent="1">
          <mxGeometry x="120" y="160" width="137" height="60" as="geometry" />
        </mxCell>
        <mxCell id="QAv7SoVQ9SZJyrw0kB7v-15" value="Gerenciar Bolsas" style="rounded=1;whiteSpace=wrap;html=1;absoluteArcSize=1;arcSize=14;strokeWidth=2;" vertex="1" parent="1">
          <mxGeometry x="354" y="470" width="130" height="60" as="geometry" />
        </mxCell>
        <mxCell id="QAv7SoVQ9SZJyrw0kB7v-20" style="edgeStyle=orthogonalEdgeStyle;rounded=0;orthogonalLoop=1;jettySize=auto;html=1;exitX=0;exitY=0.5;exitDx=0;exitDy=0;exitPerimeter=0;entryX=0.5;entryY=0;entryDx=0;entryDy=0;" edge="1" parent="1" source="QAv7SoVQ9SZJyrw0kB7v-16" target="QAv7SoVQ9SZJyrw0kB7v-19">
          <mxGeometry relative="1" as="geometry" />
        </mxCell>
        <mxCell id="QAv7SoVQ9SZJyrw0kB7v-24" value="Aluno" style="edgeLabel;html=1;align=center;verticalAlign=middle;resizable=0;points=[];" vertex="1" connectable="0" parent="QAv7SoVQ9SZJyrw0kB7v-20">
          <mxGeometry x="0.6411" relative="1" as="geometry">
            <mxPoint y="19" as="offset" />
          </mxGeometry>
        </mxCell>
        <mxCell id="QAv7SoVQ9SZJyrw0kB7v-21" style="edgeStyle=orthogonalEdgeStyle;rounded=0;orthogonalLoop=1;jettySize=auto;html=1;exitX=1;exitY=0.5;exitDx=0;exitDy=0;exitPerimeter=0;entryX=0.5;entryY=0;entryDx=0;entryDy=0;" edge="1" parent="1" source="QAv7SoVQ9SZJyrw0kB7v-16" target="QAv7SoVQ9SZJyrw0kB7v-18">
          <mxGeometry relative="1" as="geometry" />
        </mxCell>
        <mxCell id="QAv7SoVQ9SZJyrw0kB7v-25" value="Administrador" style="edgeLabel;html=1;align=center;verticalAlign=middle;resizable=0;points=[];" vertex="1" connectable="0" parent="QAv7SoVQ9SZJyrw0kB7v-21">
          <mxGeometry x="0.6248" y="2" relative="1" as="geometry">
            <mxPoint x="-2" y="7" as="offset" />
          </mxGeometry>
        </mxCell>
        <mxCell id="QAv7SoVQ9SZJyrw0kB7v-22" style="edgeStyle=orthogonalEdgeStyle;rounded=0;orthogonalLoop=1;jettySize=auto;html=1;exitX=0.5;exitY=1;exitDx=0;exitDy=0;exitPerimeter=0;entryX=0.5;entryY=0;entryDx=0;entryDy=0;" edge="1" parent="1" source="QAv7SoVQ9SZJyrw0kB7v-16" target="QAv7SoVQ9SZJyrw0kB7v-15">
          <mxGeometry relative="1" as="geometry" />
        </mxCell>
        <mxCell id="QAv7SoVQ9SZJyrw0kB7v-23" value="Instituição" style="edgeLabel;html=1;align=center;verticalAlign=middle;resizable=0;points=[];" vertex="1" connectable="0" parent="QAv7SoVQ9SZJyrw0kB7v-22">
          <mxGeometry x="-0.2941" relative="1" as="geometry">
            <mxPoint as="offset" />
          </mxGeometry>
        </mxCell>
        <mxCell id="QAv7SoVQ9SZJyrw0kB7v-16" value="Tipo de&lt;br&gt;Usuário" style="strokeWidth=2;html=1;shape=mxgraph.flowchart.decision;whiteSpace=wrap;" vertex="1" parent="1">
          <mxGeometry x="368.5" y="290" width="101" height="90" as="geometry" />
        </mxCell>
        <mxCell id="QAv7SoVQ9SZJyrw0kB7v-17" style="edgeStyle=orthogonalEdgeStyle;rounded=0;orthogonalLoop=1;jettySize=auto;html=1;exitX=0.5;exitY=1;exitDx=0;exitDy=0;entryX=0.5;entryY=0;entryDx=0;entryDy=0;entryPerimeter=0;" edge="1" parent="1" source="QAv7SoVQ9SZJyrw0kB7v-4" target="QAv7SoVQ9SZJyrw0kB7v-16">
          <mxGeometry relative="1" as="geometry" />
        </mxCell>
        <mxCell id="QAv7SoVQ9SZJyrw0kB7v-18" value="Dashboard" style="rounded=1;whiteSpace=wrap;html=1;absoluteArcSize=1;arcSize=14;strokeWidth=2;" vertex="1" parent="1">
          <mxGeometry x="710" y="470" width="130" height="60" as="geometry" />
        </mxCell>
        <mxCell id="QAv7SoVQ9SZJyrw0kB7v-19" value="Tela Inicial" style="rounded=1;whiteSpace=wrap;html=1;absoluteArcSize=1;arcSize=14;strokeWidth=2;" vertex="1" parent="1">
          <mxGeometry y="470" width="130" height="60" as="geometry" />
        </mxCell>
        <mxCell id="QAv7SoVQ9SZJyrw0kB7v-26" value="Perfil do Aluno" style="rounded=1;whiteSpace=wrap;html=1;absoluteArcSize=1;arcSize=14;strokeWidth=2;" vertex="1" parent="1">
          <mxGeometry x="166.5" y="630" width="130" height="60" as="geometry" />
        </mxCell>
        <mxCell id="QAv7SoVQ9SZJyrw0kB7v-27" value="Detalhes da Bolsa" style="rounded=1;whiteSpace=wrap;html=1;absoluteArcSize=1;arcSize=14;strokeWidth=2;" vertex="1" parent="1">
          <mxGeometry x="-166.5" y="630" width="130" height="60" as="geometry" />
        </mxCell>
        <mxCell id="QAv7SoVQ9SZJyrw0kB7v-28" value="Teste Vocacional" style="rounded=1;whiteSpace=wrap;html=1;absoluteArcSize=1;arcSize=14;strokeWidth=2;" vertex="1" parent="1">
          <mxGeometry y="630" width="130" height="60" as="geometry" />
        </mxCell>
        <mxCell id="QAv7SoVQ9SZJyrw0kB7v-29" value="Perfil Institucional" style="rounded=1;whiteSpace=wrap;html=1;absoluteArcSize=1;arcSize=14;strokeWidth=2;" vertex="1" parent="1">
          <mxGeometry x="354" y="630" width="130" height="60" as="geometry" />
        </mxCell>
        <mxCell id="QAv7SoVQ9SZJyrw0kB7v-31" value="Perfil do &lt;br&gt;Administrador" style="rounded=1;whiteSpace=wrap;html=1;absoluteArcSize=1;arcSize=14;strokeWidth=2;" vertex="1" parent="1">
          <mxGeometry x="876.5" y="630" width="130" height="60" as="geometry" />
        </mxCell>
        <mxCell id="QAv7SoVQ9SZJyrw0kB7v-32" value="Gerenciamento&lt;br&gt;de Alunos" style="rounded=1;whiteSpace=wrap;html=1;absoluteArcSize=1;arcSize=14;strokeWidth=2;" vertex="1" parent="1">
          <mxGeometry x="543.5" y="630" width="130" height="60" as="geometry" />
        </mxCell>
        <mxCell id="QAv7SoVQ9SZJyrw0kB7v-33" value="Gerenciamento&lt;br&gt;de Instituições" style="rounded=1;whiteSpace=wrap;html=1;absoluteArcSize=1;arcSize=14;strokeWidth=2;" vertex="1" parent="1">
          <mxGeometry x="710" y="630" width="130" height="60" as="geometry" />
        </mxCell>
        <mxCell id="QAv7SoVQ9SZJyrw0kB7v-44" value="" style="endArrow=classic;startArrow=classic;html=1;rounded=0;entryX=0;entryY=0.5;entryDx=0;entryDy=0;exitX=1;exitY=0.5;exitDx=0;exitDy=0;" edge="1" parent="1" source="QAv7SoVQ9SZJyrw0kB7v-6" target="QAv7SoVQ9SZJyrw0kB7v-4">
          <mxGeometry width="50" height="50" relative="1" as="geometry">
            <mxPoint x="-20" y="220" as="sourcePoint" />
            <mxPoint x="30" y="170" as="targetPoint" />
          </mxGeometry>
        </mxCell>
        <mxCell id="QAv7SoVQ9SZJyrw0kB7v-45" value="" style="endArrow=classic;startArrow=classic;html=1;rounded=0;entryX=0;entryY=0.5;entryDx=0;entryDy=0;exitX=1;exitY=0.5;exitDx=0;exitDy=0;" edge="1" parent="1" source="QAv7SoVQ9SZJyrw0kB7v-4" target="QAv7SoVQ9SZJyrw0kB7v-5">
          <mxGeometry width="50" height="50" relative="1" as="geometry">
            <mxPoint x="510" y="310" as="sourcePoint" />
            <mxPoint x="560" y="260" as="targetPoint" />
          </mxGeometry>
        </mxCell>
        <mxCell id="QAv7SoVQ9SZJyrw0kB7v-46" value="" style="endArrow=classic;startArrow=classic;html=1;rounded=0;exitX=0.5;exitY=0;exitDx=0;exitDy=0;entryX=0;entryY=0.5;entryDx=0;entryDy=0;" edge="1" parent="1" source="QAv7SoVQ9SZJyrw0kB7v-32" target="QAv7SoVQ9SZJyrw0kB7v-18">
          <mxGeometry width="50" height="50" relative="1" as="geometry">
            <mxPoint x="640" y="600" as="sourcePoint" />
            <mxPoint x="690" y="550" as="targetPoint" />
            <Array as="points">
              <mxPoint x="609" y="500" />
            </Array>
          </mxGeometry>
        </mxCell>
        <mxCell id="QAv7SoVQ9SZJyrw0kB7v-48" value="" style="endArrow=classic;startArrow=classic;html=1;rounded=0;entryX=0.5;entryY=1;entryDx=0;entryDy=0;exitX=0.5;exitY=0;exitDx=0;exitDy=0;" edge="1" parent="1" source="QAv7SoVQ9SZJyrw0kB7v-33" target="QAv7SoVQ9SZJyrw0kB7v-18">
          <mxGeometry width="50" height="50" relative="1" as="geometry">
            <mxPoint x="780" y="630" as="sourcePoint" />
            <mxPoint x="830" y="580" as="targetPoint" />
          </mxGeometry>
        </mxCell>
        <mxCell id="QAv7SoVQ9SZJyrw0kB7v-49" value="" style="endArrow=classic;startArrow=classic;html=1;rounded=0;exitX=1;exitY=0.5;exitDx=0;exitDy=0;entryX=0.5;entryY=0;entryDx=0;entryDy=0;" edge="1" parent="1" source="QAv7SoVQ9SZJyrw0kB7v-18" target="QAv7SoVQ9SZJyrw0kB7v-31">
          <mxGeometry width="50" height="50" relative="1" as="geometry">
            <mxPoint x="730" y="620" as="sourcePoint" />
            <mxPoint x="780" y="570" as="targetPoint" />
            <Array as="points">
              <mxPoint x="940" y="500" />
            </Array>
          </mxGeometry>
        </mxCell>
        <mxCell id="QAv7SoVQ9SZJyrw0kB7v-50" value="" style="endArrow=classic;startArrow=classic;html=1;rounded=0;entryX=0.5;entryY=1;entryDx=0;entryDy=0;exitX=0.5;exitY=0;exitDx=0;exitDy=0;" edge="1" parent="1" source="QAv7SoVQ9SZJyrw0kB7v-29" target="QAv7SoVQ9SZJyrw0kB7v-15">
          <mxGeometry width="50" height="50" relative="1" as="geometry">
            <mxPoint x="280" y="570" as="sourcePoint" />
            <mxPoint x="330" y="520" as="targetPoint" />
          </mxGeometry>
        </mxCell>
        <mxCell id="QAv7SoVQ9SZJyrw0kB7v-51" value="" style="endArrow=classic;startArrow=classic;html=1;rounded=0;entryX=0.5;entryY=1;entryDx=0;entryDy=0;exitX=0.5;exitY=0;exitDx=0;exitDy=0;" edge="1" parent="1" source="QAv7SoVQ9SZJyrw0kB7v-28" target="QAv7SoVQ9SZJyrw0kB7v-19">
          <mxGeometry width="50" height="50" relative="1" as="geometry">
            <mxPoint x="-210" y="570" as="sourcePoint" />
            <mxPoint x="-160" y="520" as="targetPoint" />
          </mxGeometry>
        </mxCell>
        <mxCell id="QAv7SoVQ9SZJyrw0kB7v-52" value="" style="endArrow=classic;startArrow=classic;html=1;rounded=0;entryX=0;entryY=0.5;entryDx=0;entryDy=0;exitX=0.5;exitY=0;exitDx=0;exitDy=0;" edge="1" parent="1" source="QAv7SoVQ9SZJyrw0kB7v-27" target="QAv7SoVQ9SZJyrw0kB7v-19">
          <mxGeometry width="50" height="50" relative="1" as="geometry">
            <mxPoint x="-90" y="550" as="sourcePoint" />
            <mxPoint x="-40" y="500" as="targetPoint" />
            <Array as="points">
              <mxPoint x="-100" y="500" />
            </Array>
          </mxGeometry>
        </mxCell>
        <mxCell id="QAv7SoVQ9SZJyrw0kB7v-53" value="" style="endArrow=classic;startArrow=classic;html=1;rounded=0;exitX=1;exitY=0.5;exitDx=0;exitDy=0;entryX=0.5;entryY=0;entryDx=0;entryDy=0;" edge="1" parent="1" source="QAv7SoVQ9SZJyrw0kB7v-19" target="QAv7SoVQ9SZJyrw0kB7v-26">
          <mxGeometry width="50" height="50" relative="1" as="geometry">
            <mxPoint x="170" y="550" as="sourcePoint" />
            <mxPoint x="220" y="500" as="targetPoint" />
            <Array as="points">
              <mxPoint x="230" y="500" />
            </Array>
          </mxGeometry>
        </mxCell>
      </root>
    </mxGraphModel>
  </diagram>
</mxfile>
